<?xml version="1.0" encoding="UTF-8"?>
<svg version="1.1" xmlns="http://www.w3.org/2000/svg" width="270" height="270">
<path d="M0 0 C1.53827957 -0.02893593 1.53827957 -0.02893593 3.1076355 -0.05845642 C7.84206798 -0.11622248 12.57634337 -0.16556446 17.31103516 -0.19628906 C19.79978382 -0.2177828 22.28845869 -0.25178136 24.77685547 -0.29882812 C28.37257539 -0.36620591 31.96672391 -0.39336098 35.56298828 -0.41235352 C36.66238739 -0.44018417 37.7617865 -0.46801483 38.89450073 -0.49668884 C47.83808285 -0.47321387 54.74016332 2.15305768 61.40377808 8.21852112 C68.86250563 15.98190558 70.34295955 25.02906508 70.32080078 35.52124023 C70.32466797 37.37168945 70.32466797 37.37168945 70.32861328 39.25952148 C70.19580078 42.20874023 70.19580078 42.20874023 69.19580078 43.20874023 C67.57322534 43.30790594 65.94640247 43.339538 64.32080078 43.34155273 C63.33595703 43.3428418 62.35111328 43.34413086 61.33642578 43.34545898 C60.30001953 43.3415918 59.26361328 43.33772461 58.19580078 43.33374023 C56.64119141 43.33954102 56.64119141 43.33954102 55.05517578 43.34545898 C54.07033203 43.34416992 53.08548828 43.34288086 52.07080078 43.34155273 C51.16072266 43.3404248 50.25064453 43.33929688 49.31298828 43.33813477 C47.19580078 43.20874023 47.19580078 43.20874023 46.19580078 42.20874023 C45.90971062 38.91189169 45.74689931 35.61492898 45.57470703 32.31030273 C45.41180114 29.04555677 45.41180114 29.04555677 43.19580078 26.20874023 C40.97647801 25.70097979 40.97647801 25.70097979 38.40673828 25.69702148 C37.46572266 25.66157227 36.52470703 25.62612305 35.55517578 25.58959961 C34.57033203 25.56704102 33.58548828 25.54448242 32.57080078 25.52124023 C31.57822266 25.48708008 30.58564453 25.45291992 29.56298828 25.41772461 C27.10737172 25.33508367 24.65211937 25.26598897 22.19580078 25.20874023 C22.20740234 26.06467773 22.21900391 26.92061523 22.23095703 27.80249023 C22.33930083 43.28017534 21.72799318 58.74260649 21.19580078 74.20874023 C22.1269873 74.49467041 23.05817383 74.78060059 24.01757812 75.07519531 C30.80925098 77.49751342 37.16605739 83.88948764 40.82080078 90.08374023 C43.02620037 95.09601202 43.30197748 98.68755184 43.19580078 104.20874023 C44.51580078 104.20874023 45.83580078 104.20874023 47.19580078 104.20874023 C47.19580078 95.29874023 47.19580078 86.38874023 47.19580078 77.20874023 C43.23580078 77.20874023 39.27580078 77.20874023 35.19580078 77.20874023 C34.19580078 76.20874023 34.19580078 76.20874023 34.08227539 74.07568359 C34.09013062 72.70101929 34.09013062 72.70101929 34.09814453 71.29858398 C34.10064209 70.40776123 34.10313965 69.51693848 34.10571289 68.59912109 C34.11481689 67.45967041 34.1239209 66.32021973 34.13330078 65.14624023 C34.15392578 61.53686523 34.17455078 57.92749023 34.19580078 54.20874023 C47.39580078 53.87874023 60.59580078 53.54874023 74.19580078 53.20874023 C73.19580078 56.20874023 73.19580078 56.20874023 71.19580078 57.20874023 C71.19525601 57.76366748 71.19471125 58.31859472 71.19414997 58.89033794 C71.17912547 72.44767563 71.13613889 86.00468254 71.06371021 99.5618391 C71.02951332 106.1182577 71.00434151 112.67444506 71.00024414 119.23095703 C70.99594567 125.56597109 70.96735361 131.90046416 70.922369 138.23531532 C70.90944361 140.64441193 70.90506859 143.05357105 70.90964699 145.46269798 C70.93387867 162.09450191 69.82258864 174.18113507 60.19580078 188.20874023 C59.20580078 187.87874023 58.21580078 187.54874023 57.19580078 187.20874023 C57.40076172 186.64026367 57.60572266 186.07178711 57.81689453 185.48608398 C58.08630859 184.71393555 58.35572266 183.94178711 58.63330078 183.14624023 C58.90013672 182.39213867 59.16697266 181.63803711 59.44189453 180.86108398 C61.16691469 174.79223066 61.33435985 168.82174743 61.21533203 162.57202148 C61.20120773 161.77015915 61.18708344 160.96829681 61.17253113 160.14213562 C61.13961467 158.45878321 61.10329332 156.77549424 61.0637207 155.09228516 C61.00824039 152.51843862 60.97985724 149.94512075 60.95166016 147.37084961 C60.91622461 145.72953658 60.87917143 144.0882575 60.84033203 142.44702148 C60.83596634 141.68029617 60.83160065 140.91357086 60.82710266 140.12361145 C60.72332682 136.87700135 60.5769984 134.71070963 58.58256531 132.08439636 C55.59900064 129.73974053 53.15136713 129.1998535 49.44580078 128.45874023 C47.69009766 128.09522461 47.69009766 128.09522461 45.89892578 127.72436523 C45.00689453 127.55420898 44.11486328 127.38405273 43.19580078 127.20874023 C43.28007795 135.91006919 43.37491142 144.61119965 43.48332787 153.31226158 C43.53333285 157.35226362 43.57966226 161.39223897 43.61767578 165.43237305 C43.65447587 169.32931561 43.70082091 173.22603714 43.75386429 177.12279129 C43.77243643 178.61153929 43.78753392 180.10033472 43.79914474 181.58915329 C43.81595947 183.6701001 43.84498135 185.75053756 43.87695312 187.83129883 C43.89027679 189.01710541 43.90360046 190.20291199 43.91732788 191.4246521 C43.91297283 194.34805905 43.91297283 194.34805905 46.19580078 196.20874023 C46.19580078 197.19874023 46.19580078 198.18874023 46.19580078 199.20874023 C38.70715254 199.38725204 31.21905925 199.50924131 23.72875977 199.59326172 C21.18460588 199.62831228 18.64059145 199.67596782 16.09692383 199.73681641 C12.42510453 199.82240828 8.75515965 199.86158549 5.08251953 199.89233398 C3.39590462 199.94652748 3.39590462 199.94652748 1.67521667 200.0018158 C-7.66184873 200.00638556 -14.07138144 196.7712066 -20.77632141 190.30760193 C-28.13691279 182.30394843 -31.02722993 170.96997188 -30.80419922 160.20874023 C-30.17192041 158.85876033 -29.50889699 157.52237004 -28.80419922 156.20874023 C-24.99171496 156.17986787 -21.17925852 156.16198532 -17.36669922 156.14624023 C-16.27808594 156.13786133 -15.18947266 156.12948242 -14.06787109 156.12084961 C-13.03339844 156.11762695 -11.99892578 156.1144043 -10.93310547 156.11108398 C-9.49559937 156.10322876 -9.49559937 156.10322876 -8.02905273 156.09521484 C-5.80419922 156.20874023 -5.80419922 156.20874023 -4.80419922 157.20874023 C-4.55905581 160.79963726 -4.41979153 164.38960238 -4.28076172 167.98608398 C-4.12349609 169.04956055 -3.96623047 170.11303711 -3.80419922 171.20874023 C-0.67302355 173.29619068 0.26526302 173.48528019 3.86376953 173.62280273 C5.2027832 173.68081055 5.2027832 173.68081055 6.56884766 173.73999023 C7.96200195 173.78639648 7.96200195 173.78639648 9.38330078 173.83374023 C10.32367188 173.87241211 11.26404297 173.91108398 12.23291016 173.95092773 C14.55367788 174.04517211 16.87443826 174.13078048 19.19580078 174.20874023 C18.94830078 172.32155273 18.94830078 172.32155273 18.69580078 170.39624023 C17.61204821 160.54359508 18.25711208 150.59071212 18.63330078 140.70874023 C18.67261719 139.54342773 18.71193359 138.37811523 18.75244141 137.17749023 C18.8152832 135.50686523 18.8152832 135.50686523 18.87939453 133.80249023 C18.91605225 132.79895508 18.95270996 131.79541992 18.99047852 130.76147461 C19.19580078 128.20874023 19.19580078 128.20874023 20.19580078 125.20874023 C19.47263672 124.9522168 18.74947266 124.69569336 18.00439453 124.43139648 C9.16999838 120.5855467 2.00460314 113.1353014 -1.60888672 104.22436523 C-2.58617515 101.09168724 -2.80419922 98.51267019 -2.80419922 95.20874023 C-3.79419922 95.20874023 -4.78419922 95.20874023 -5.80419922 95.20874023 C-5.80419922 104.11874023 -5.80419922 113.02874023 -5.80419922 122.20874023 C-1.84419922 122.20874023 2.11580078 122.20874023 6.19580078 122.20874023 C7.81780593 123.83074538 7.32570828 125.62897054 7.32861328 127.86499023 C7.33054687 129.27458008 7.33054687 129.27458008 7.33251953 130.71264648 C7.32865234 131.70135742 7.32478516 132.69006836 7.32080078 133.70874023 C7.32660156 135.19180664 7.32660156 135.19180664 7.33251953 136.70483398 C7.33123047 137.64456055 7.32994141 138.58428711 7.32861328 139.55249023 C7.32692139 140.85476562 7.32692139 140.85476562 7.32519531 142.18334961 C7.19580078 144.20874023 7.19580078 144.20874023 6.19580078 145.20874023 C3.23874758 145.29742322 0.30515022 145.32394319 -2.65185547 145.30639648 C-3.98149574 145.30427406 -3.98149574 145.30427406 -5.33799744 145.30210876 C-8.18093176 145.29649239 -11.02378853 145.28393715 -13.86669922 145.27124023 C-15.78922413 145.26622734 -17.71175026 145.26166407 -19.63427734 145.25756836 C-24.35761471 145.24651764 -29.0808938 145.22924206 -33.80419922 145.20874023 C-32.82481133 144.28766228 -32.82481133 144.28766228 -31.82563782 143.34797668 C-28.94310098 138.87147924 -29.324356 135.19319933 -29.46118164 129.98095703 C-29.47184158 128.95254196 -29.48250153 127.92412689 -29.4934845 126.86454773 C-29.51873354 124.63224177 -29.55300753 122.4000238 -29.59523582 120.16797447 C-29.66032838 116.62198236 -29.69763437 113.07668391 -29.72712708 109.53022766 C-29.81561381 99.44744971 -29.95097073 89.36554907 -30.11254883 79.28369141 C-30.20952178 73.1117743 -30.27126958 66.94026789 -30.31258583 60.76774025 C-30.33539668 58.42790502 -30.3715904 56.08815682 -30.42204857 53.7487545 C-30.72517304 39.60297525 -29.99251867 28.58913347 -22.80419922 16.20874023 C-22.29571945 15.24453659 -21.78723969 14.28033295 -21.26335144 13.28691101 C-20.78183121 12.60111465 -20.30031097 11.9153183 -19.80419922 11.20874023 C-18.81419922 11.20874023 -17.82419922 11.20874023 -16.80419922 11.20874023 C-17.23747812 14.24169253 -17.70603448 16.96051772 -18.8359375 19.81762695 C-20.10038687 24.24606916 -20.02416054 28.26371928 -19.92138672 32.84155273 C-19.90584747 33.75581024 -19.89030823 34.67006775 -19.8742981 35.61203003 C-19.83761729 37.53679625 -19.79526076 39.46146172 -19.74755859 41.38598633 C-19.67926599 44.33086089 -19.6432674 47.27501718 -19.60888672 50.22045898 C-19.56918942 52.09419966 -19.52758795 53.96790117 -19.48388672 55.84155273 C-19.47638397 56.720784 -19.46888123 57.60001526 -19.46115112 58.50588989 C-19.43497711 59.3270932 -19.4088031 60.14829651 -19.38183594 60.99438477 C-19.36692108 61.71353058 -19.35200623 62.43267639 -19.3366394 63.1736145 C-18.553987 66.16511683 -17.23701164 67.33367134 -14.80419922 69.20874023 C-11.78118523 70.11340954 -11.78118523 70.11340954 -8.55419922 70.45874023 C-7.47654297 70.60827148 -6.39888672 70.75780273 -5.28857422 70.91186523 C-4.46873047 71.00983398 -3.64888672 71.10780273 -2.80419922 71.20874023 C-2.8885334 62.52468263 -2.98338949 53.84082263 -3.0917263 45.15703106 C-3.14169843 41.12490475 -3.18802828 37.09280475 -3.22607422 33.06054688 C-3.26291562 29.17008429 -3.30927222 25.27984139 -3.36226273 21.38956642 C-3.38081282 19.90443584 -3.39591852 18.41925817 -3.40754318 16.93405724 C-3.42439544 14.85571106 -3.45342687 12.77786867 -3.48535156 10.69970703 C-3.49867523 9.51612106 -3.5119989 8.3325351 -3.52572632 7.11308289 C-3.59181585 4.01516532 -3.59181585 4.01516532 -5.80419922 1.20874023 C-4.1628495 -0.43260948 -2.26400738 0.039668 0 0 Z " fill="#8F62E6" transform="translate(113.80419921875,36.791259765625)"/>
<path d="M0 0 C0.83692383 0.27376465 1.67384766 0.5475293 2.53613281 0.82958984 C20.87088719 6.96890415 36.22768982 15.60484318 51 28 C51.79277344 28.65097656 52.58554688 29.30195312 53.40234375 29.97265625 C58.09648951 33.92799212 62.11960706 38.25110022 66 43 C67.14275391 44.36898437 67.14275391 44.36898437 68.30859375 45.765625 C79.72317847 59.94036671 87.62060022 75.64638677 93 93 C93.22445801 93.68416992 93.44891602 94.36833984 93.68017578 95.07324219 C100.53967137 116.77304328 100.24356891 147.4577517 93 169 C92.72623535 169.83692383 92.4524707 170.67384766 92.17041016 171.53613281 C86.03109585 189.87088719 77.39515682 205.22768982 65 220 C64.34902344 220.79277344 63.69804687 221.58554688 63.02734375 222.40234375 C59.07200788 227.09648951 54.74889978 231.11960706 50 235 C48.63101563 236.14275391 48.63101563 236.14275391 47.234375 237.30859375 C32.95951734 248.80379948 17.3364913 256.27314252 0 262 C-1.02351562 262.34933594 -2.04703125 262.69867188 -3.1015625 263.05859375 C-11.24024777 265.69169781 -19.36973153 266.15557021 -27.875 266.1328125 C-28.68437012 266.13376923 -29.49374023 266.13472595 -30.32763672 266.13571167 C-32.0250659 266.13638688 -33.72249777 266.13457905 -35.41992188 266.13037109 C-37.99354952 266.12501343 -40.56700268 266.13033868 -43.140625 266.13671875 C-44.80208371 266.13605785 -46.46354232 266.13477645 -48.125 266.1328125 C-49.25977783 266.13584885 -49.25977783 266.13584885 -50.41748047 266.13894653 C-57.75652773 266.10730225 -64.82891066 265.6668511 -71.8125 263.2578125 C-73.33230469 262.74154297 -73.33230469 262.74154297 -74.8828125 262.21484375 C-75.91148438 261.85519531 -76.94015625 261.49554688 -78 261.125 C-79.02867188 260.77308594 -80.05734375 260.42117188 -81.1171875 260.05859375 C-83.13010217 259.36969547 -85.1418683 258.67743006 -87.15234375 257.98144531 C-91.09162956 256.62376965 -95.04469666 255.31019423 -99 254 C-99 253.34 -99 252.68 -99 252 C-99.69867188 251.74347656 -100.39734375 251.48695313 -101.1171875 251.22265625 C-111.17129867 246.95851425 -119.78998851 240.06166583 -128 233 C-128.65742188 232.46503906 -129.31484375 231.93007812 -129.9921875 231.37890625 C-142.06716381 221.47742568 -151.53938653 207.62019353 -159 194 C-159 193.34 -159 192.68 -159 192 C-159.66 191.67 -160.32 191.34 -161 191 C-164.40768802 184.04935412 -166.59393143 176.34287248 -169 169 C-169.37753418 167.86643066 -169.37753418 167.86643066 -169.76269531 166.70996094 C-174.45564145 151.8571734 -173.43348106 135.91687625 -173.23828125 120.5234375 C-173.2306929 119.7989743 -173.22310455 119.07451111 -173.21528625 118.32809448 C-173.08533568 111.13342149 -172.63089522 104.12006776 -170.328125 97.2578125 C-169.99296875 96.25363281 -169.6578125 95.24945313 -169.3125 94.21484375 C-168.961875 93.19519531 -168.61125 92.17554687 -168.25 91.125 C-167.74726563 89.60712891 -167.74726563 89.60712891 -167.234375 88.05859375 C-163.89236131 78.17180325 -159.86505073 68.81282439 -154.25 60 C-153.60756348 58.98208374 -153.60756348 58.98208374 -152.95214844 57.94360352 C-149.06682919 51.89905884 -144.71452235 46.42580425 -140 41 C-139.46761719 40.34644531 -138.93523437 39.69289062 -138.38671875 39.01953125 C-134.67375044 34.48590687 -130.52913994 30.70837323 -126 27 C-125.06285156 26.22527344 -124.12570313 25.45054688 -123.16015625 24.65234375 C-108.95007409 13.15985278 -93.32929409 5.66855423 -76 0 C-75.28166992 -0.24153809 -74.56333984 -0.48307617 -73.82324219 -0.73193359 C-52.23961403 -7.62656088 -21.42563774 -7.20435868 0 0 Z M-132.30126953 50.06738281 C-153.0615989 73.68606164 -163.38726929 105.78644099 -162 137 C-159.47178963 172.79223539 -143.98595197 203.2799073 -117 227 C-91.45299818 247.66774304 -58.64352073 257.65635415 -25.91308594 254.48706055 C8.25556165 250.74239274 38.42991572 234.19490809 60.02734375 207.3203125 C66.16344344 199.37313557 70.89196128 191.17569803 75 182 C75.46019531 181.01644531 75.92039063 180.03289062 76.39453125 179.01953125 C89.30581737 150.11541338 88.83912751 116.13794882 78.14794922 86.64990234 C71.73678424 70.11694145 62.32711008 56.61844503 50 44 C49.26136719 43.19949219 48.52273437 42.39898437 47.76171875 41.57421875 C37.36510554 30.56939416 21.25594377 19.17436712 6.28125 15.66796875 C4 15 4 15 1.29296875 13.55859375 C-2.79398858 11.62419758 -6.77141451 10.75217666 -11.1875 9.875 C-12.03320557 9.70323242 -12.87891113 9.53146484 -13.75024414 9.35449219 C-19.82180001 8.15543121 -25.80612839 7.22155373 -32 7 C-32.90105469 6.96003906 -33.80210937 6.92007812 -34.73046875 6.87890625 C-72.96183892 6.00180329 -106.57103029 22.33819494 -132.30126953 50.06738281 Z " fill="#8468E8" transform="translate(173,4)"/>
<path d="M0 0 C0.99 0 1.98 0 3 0 C2.5667211 3.0329523 2.09816473 5.75177748 0.96826172 8.60888672 C-0.29618765 13.03732893 -0.21996132 17.05497905 -0.1171875 21.6328125 C-0.10164825 22.54707001 -0.08610901 23.46132751 -0.07009888 24.40328979 C-0.03341807 26.32805601 0.00893846 28.25272148 0.05664062 30.17724609 C0.12493323 33.12212066 0.16093182 36.06627694 0.1953125 39.01171875 C0.2350098 40.88545943 0.27661127 42.75916093 0.3203125 44.6328125 C0.32781525 45.51204376 0.33531799 46.39127502 0.3430481 47.29714966 C0.48613247 52.258991 0.48613247 52.258991 2.85620117 56.52661133 C5.57845864 58.39756268 7.95361362 58.93620532 11.1875 59.5625 C14.41796875 60.19140625 14.41796875 60.19140625 17 61 C17.94137255 63.82411765 18.11725382 65.52918032 18.09765625 68.44921875 C18.09443359 69.29677734 18.09121094 70.14433594 18.08789062 71.01757812 C18.07532227 72.33918945 18.07532227 72.33918945 18.0625 73.6875 C18.05798828 74.58017578 18.05347656 75.47285156 18.04882812 76.39257812 C18.03704983 78.59511987 18.02060164 80.79752599 18 83 C16.02 83.495 16.02 83.495 14 84 C14 92.91 14 101.82 14 111 C17.96 111 21.92 111 26 111 C27.62200515 112.62200515 27.1299075 114.42023031 27.1328125 116.65625 C27.13474609 118.06583984 27.13474609 118.06583984 27.13671875 119.50390625 C27.13285156 120.49261719 27.12898438 121.48132813 27.125 122.5 C27.13080078 123.98306641 27.13080078 123.98306641 27.13671875 125.49609375 C27.13542969 126.43582031 27.13414063 127.37554687 27.1328125 128.34375 C27.13112061 129.64602539 27.13112061 129.64602539 27.12939453 130.97460938 C27 133 27 133 26 134 C23.04294679 134.08868299 20.10934944 134.11520296 17.15234375 134.09765625 C15.82270348 134.09553383 15.82270348 134.09553383 14.46620178 134.09336853 C11.62326746 134.08775215 8.78041069 134.07519691 5.9375 134.0625 C4.01497509 134.05748711 2.09244896 134.05292384 0.16992188 134.04882812 C-4.55341549 134.03777741 -9.27669458 134.02050183 -14 134 C-13.02061211 133.07892204 -13.02061211 133.07892204 -12.0214386 132.13923645 C-9.13890176 127.66273901 -9.52015679 123.98445909 -9.65698242 118.7722168 C-9.67297234 117.22959419 -9.67297234 117.22959419 -9.68928528 115.6558075 C-9.71453432 113.42350153 -9.74880831 111.19128356 -9.79103661 108.95923424 C-9.85612916 105.41324212 -9.89343516 101.86794367 -9.92292786 98.32148743 C-10.0114146 88.23870948 -10.14677151 78.15680884 -10.30834961 68.07495117 C-10.40532256 61.90303406 -10.46707036 55.73152766 -10.50838661 49.55900002 C-10.53119746 47.21916479 -10.56739118 44.87941658 -10.61784935 42.54001427 C-10.92097382 28.39423502 -10.18831945 17.38039323 -3 5 C-2.49152023 4.03579636 -1.98304047 3.07159271 -1.45915222 2.07817078 C-0.97763199 1.39237442 -0.49611176 0.70657806 0 0 Z " fill="#7771EA" transform="translate(94,48)"/>
</svg>
